<svg xmlns="http://www.w3.org/2000/svg" viewBox="0 0 64 64" aria-labelledby="title"
aria-describedby="desc" role="img" xmlns:xlink="http://www.w3.org/1999/xlink"
width="64" height="64">
  <title>Broken Link</title>
  <desc>A line styled icon from Orion Icon Library.</desc>
  <path data-name="layer2"
  fill="none" stroke="#4caf50" stroke-miterlimit="10" stroke-width="4" d="M14.9 26h-13m22-11V2m-8 16L6.7 8.8M48.9 38h13m-22 11v13m8-16l9.2 9.2"
  stroke-linejoin="round" stroke-linecap="round"></path>
  <path data-name="layer1" d="M27 41.1a4.7 4.7 0 0 1 0 6.6L18.7 56a4.7 4.7 0 0 1-6.6 0l-4-4a4.7 4.7 0 0 1 0-6.6l8.3-8.3a4.7 4.7 0 0 1 6.6 0l2.2-4.2a9.4 9.4 0 0 0-12.2.9l-8.2 8.3a9.3 9.3 0 0 0 0 13.2l4 4a9.3 9.3 0 0 0 13.2 0l8.3-8.3a9.4 9.4 0 0 0 .9-12.2zm10.2-18.2a4.7 4.7 0 0 1 0-6.6L45.5 8a4.7 4.7 0 0 1 6.6 0l4 4a4.7 4.7 0 0 1 0 6.6l-8.3 8.3a4.7 4.7 0 0 1-6.6 0L39 31.1a9.4 9.4 0 0 0 12.2-.9l8.3-8.3a9.3 9.3 0 0 0 0-13.2l-4-4a9.3 9.3 0 0 0-13.2 0L33.9 13a9.4 9.4 0 0 0-.9 12.2z"
  fill="none" stroke="#4caf50" stroke-miterlimit="10" stroke-width="4" stroke-linejoin="round"
  stroke-linecap="round"></path>
</svg>