<?xml version="1.0" encoding="UTF-8"?>
<!DOCTYPE svg PUBLIC "-//W3C//DTD SVG 1.1//EN" "http://www.w3.org/Graphics/SVG/1.1/DTD/svg11.dtd">
<!-- Creator: CorelDRAW X7 -->
<svg xmlns="http://www.w3.org/2000/svg" xml:space="preserve" width="11in" height="8.5in" version="1.1" style="shape-rendering:geometricPrecision; text-rendering:geometricPrecision; image-rendering:optimizeQuality; fill-rule:evenodd; clip-rule:evenodd"
viewBox="0 0 11000 8500"
 xmlns:xlink="http://www.w3.org/1999/xlink">
 <defs>
  <style type="text/css">
   <![CDATA[
    .fil4 {fill:none}
    .fil1 {fill:#1B5F34}
    .fil0 {fill:#84C12B}
    .fil2 {fill:#1B5F34;fill-rule:nonzero}
    .fil3 {fill:#84C12B;fill-rule:nonzero}
   ]]>
  </style>
 </defs>
 <g id="Layer_x0020_1">
  <metadata id="CorelCorpID_0Corel-Layer"/>
  <g id="_866673488">
   <g>
    <path class="fil0" d="M6890 4955c-355,384 -864,625 -1428,625 -1073,0 -1943,-870 -1943,-1942 0,-8 1,-16 1,-23l-448 0 827 -1131 683 1131 -478 0c0,7 0,15 0,23 0,750 608,1358 1358,1358 387,0 736,-162 983,-421l445 380z"/>
    <path class="fil1" d="M6350 3615l470 0c-12,-740 -615,-1336 -1358,-1336 -377,0 -717,154 -963,401l-419 -408c352,-356 841,-577 1382,-577 1065,0 1930,858 1942,1920l524 0 -882 1148 -696 -1148z"/>
    <g>
     <path class="fil2" d="M5205 3800l367 0c306,0 322,104 322,374 0,203 17,305 44,399l457 0 0 -52c-88,-33 -88,-105 -88,-394 0,-369 -88,-429 -251,-501 196,-66 306,-253 306,-470 0,-171 -96,-559 -622,-559l-535 0 0 341 455 0c242,0 289,154 289,259 0,195 -104,270 -319,270l-425 0 0 333z"/>
     <polygon class="fil3" points="5146,3002 5146,2938 5146,2597 4741,2597 4741,3002 "/>
     <polygon class="fil2" points="4741,4573 5146,4573 5146,3959 5146,3800 5146,3467 5146,3057 4741,3057 "/>
    </g>
   </g>
   <g>
    <polygon class="fil2" points="5156,6805 4235,6805 4235,5885 4450,5885 4450,6590 5156,6590 "/>
    <path class="fil2" d="M4146 6805l-215 0 0 -292 -565 0 0 -214 565 0 0 -129c0,-47 -15,-70 -46,-70l-609 0c-29,0 -44,23 -44,70l0 635 -215 0 0 -636c0,-77 24,-144 73,-200 48,-56 110,-84 186,-84l609 0c77,0 140,28 188,84 49,56 73,123 73,200l0 636z"/>
    <polygon class="fil2" points="2928,6100 2160,6100 2160,6238 2878,6238 2878,6452 2160,6452 2160,6590 2926,6590 2926,6805 1946,6805 1946,5885 2928,5885 "/>
    <path class="fil2" d="M1856 6514c0,83 -29,153 -87,208 -57,55 -128,83 -211,83l-711 0 0 -580 157 0 58 0 0 365 497 0c55,0 83,-25 83,-76l0 -337c0,-51 -28,-77 -83,-77l-555 0 -157 0 0 -215 711 0c83,0 154,28 211,83 58,56 87,125 87,208l0 338z"/>
    <polygon class="fil3" points="543,6100 543,5885 758,5885 758,6100 "/>
    <polygon class="fil2" points="758,6805 543,6805 543,6225 758,6225 "/>
    <path class="fil2" d="M6615 6805l-294 0 -459 -515 552 0c40,0 59,-32 59,-95 0,-63 -19,-95 -59,-95l-665 0 0 705 -215 0 0 -919 893 0c82,0 147,32 195,96 44,59 66,129 66,213 0,83 -22,154 -66,213 -48,64 -113,96 -195,96l-82 0 270 301z"/>
    <polygon id="1" class="fil2" points="7759,6100 6992,6100 6992,6238 7709,6238 7709,6453 6992,6453 6992,6590 7758,6590 7758,6805 6778,6805 6778,5886 7759,5886 "/>
    <polygon id="2" class="fil2" points="9044,6805 8829,6805 8829,6245 8446,6791 8064,6245 8064,6805 7849,6805 7849,5886 8074,5886 8446,6417 8820,5886 9044,5886 "/>
    <polygon id="3" class="fil2" points="9348,6805 9133,6805 9133,5886 9348,5886 "/>
    <polygon id="4" class="fil2" points="10457,6100 10042,6100 10042,6805 9827,6805 9827,6100 9412,6100 9412,5886 10457,5886 "/>
   </g>
  </g>
  <rect class="fil4" x="321" y="1396" width="10359" height="5707"/>
 </g>
</svg>
