<svg width="72" height="72" viewBox="0 0 72 72" xmlns="http://www.w3.org/2000/svg"><title>piggybank</title><g fill="none" fill-rule="evenodd"><path d="M64.58 35.098h-.239c-1.42-9.633-9.035-17.442-19.2-20.365l-.408-.114c-.199-4.065-3.488-7.352-7.528-7.352-3.876 0-7.067 2.953-7.494 6.785l-.053-.014-.996.13c-2.368.606-5.102 1.596-7.167 2.685-.146.077-.395.292-.395.292-2.622-2.37-5.916-3.546-9.207-3.508-.395 3.1.26 6.4 1.911 9.15l-.11.335c-1.713 1.934-3.102 4.483-4.097 6.624H6.782c-1.155 0-2.515.559-2.515 1.736v11.774c0 3.255 3.36 2.545 9.363 10.037h-.03c.266 0 .527.334.81.628 3.642 4.006 4.99 4.924 4.99 8.938 0 1.177.939 2.208 2.095 2.208H27.8c.578 0 1.103-.443 1.485-.832l.06-.164c.833-1.146 1.788-1.892 4.004-1.623l-.043-.029c.954.085 1.87.115 2.85.115.959 0 1.739-.054 2.79-.134v-.002c2.101-.27 3.484.528 4.318 1.599h-.046c.382 1.07.801 1.07 1.38 1.07h6.304c1.156 0 2.102-1.166 2.102-2.343 0-4.014 1.355-4.966 4.998-8.974l.009.16c3.357-3.493 5.62-7.039 6.33-12.39h.24c1.741 0 3.152-1.438 3.152-3.211 0-1.774-1.411-3.211-3.152-3.211" fill="#FFF"/><g fill="#E5EFF4"><path d="M64.297 34.81h-.248c-1.148-7.548-6.234-13.962-13.425-17.797 3.72 4.143 5.922 9.272 5.922 14.826 0 13.758-13.496 24.91-30.142 24.91-4.823 0-9.377-.941-13.419-2.605 3.392 3.574 4.667 4.591 4.667 8.423 0 1.178.968 2.208 2.162 2.208h6.51c.596 0 1.139-.443 1.533-.831l.061-.165c.86-1.145 1.847-1.891 4.134-1.623l-.044-.028a33.82 33.82 0 0 0 2.942.114c.99 0 1.796-.053 2.88-.134v-.002c2.17-.268 3.598.529 4.459 1.6h-.047c.394 1.07.827 1.07 1.423 1.07h6.51c1.194 0 2.17-1.166 2.17-2.343 0-4.014 1.399-4.966 5.16-8.973l.009.16c3.466-3.493 5.802-7.038 6.535-12.39h.248c1.798 0 3.255-1.437 3.255-3.21 0-1.774-1.457-3.21-3.255-3.21M31.326 19.945s2.394-.296 5.659-.516c3.263-.22 5.544.631 5.544.631l1.975-3.265s-2.685-1.533-7.52-1.533c-4.833 0-7.84 1.751-7.84 1.751l2.182 2.932z"/></g><path d="M14.215 31.776c-.904 0-1.638.722-1.638 1.61 0 .89.734 1.611 1.638 1.611.904 0 1.638-.721 1.638-1.61 0-.89-.734-1.61-1.638-1.61z" fill="#2F4662"/><path d="M24.426 22.906a13.801 13.801 0 0 0-3.436-5.488c-2.813-2.766-6.513-4.122-10.2-4.08-.411 3.11.27 6.42 1.987 9.18l-.116.131c-1.78 1.94-3.223 4.108-4.256 6.443H5.48c-1.201 0-2.184.967-2.184 2.148v11.81c0 3.265 3.004 2.148 9.24 9.525.276.306.56.607.854.902 3.785 4.019 5.192 4.873 5.192 8.9 0 1.18.983 2.147 2.184 2.147h6.551c.6 0 1.147-.242 1.543-.631l.062-.065c.866-1.149 1.859-1.845 4.162-1.576l-.045-.003a35.766 35.766 0 0 0 5.966.005v-.002c2.303-.27 3.294.427 4.16 1.576l.063.065c.397.39.942.631 1.543.631h6.551c1.201 0 2.184-.966 2.184-2.147 0-4.027 1.406-4.881 5.192-8.9l.009.007c3.488-3.504 5.84-7.831 6.578-12.582l.248.001c1.81 0 3.276-1.443 3.276-3.221 0-1.78-1.467-3.221-3.276-3.221l-.248-.001c-1.477-9.493-9.389-17.292-19.95-20.224" stroke="#2F4662" stroke-width="2"/><path d="M20.315 16.796c.15-.08.3-.157.451-.234 2.146-1.092 4.987-2.089 7.447-2.696l1.035-.138" stroke="#2F4662" stroke-width="1.5"/><path d="M25.134 60.091a34.455 34.455 0 0 0 10.92 1.75c3.856 0 7.54-.621 10.918-1.75" stroke="#2F4662" stroke-width="1.5" stroke-linejoin="round"/><path d="M42.634 20.06a7.621 7.621 0 0 0 2.296-5.452c0-4.258-3.51-7.71-7.84-7.71-4.331 0-7.842 3.452-7.842 7.71 0 2.071.831 3.953 2.182 5.338" stroke="#19AFFA" stroke-width="1.5" stroke-linecap="round" stroke-linejoin="round"/><path d="M46.862 21.576c-3.059-1.37-6.553-2.147-10.264-2.147-3.32 0-6.465.621-9.281 1.734" stroke="#2F4662" stroke-width="1.5" stroke-linejoin="round"/><g><path d="M68.15 94.726c0-2.725-2.53-4.955-5.255-4.955H59.34v-4.405c0-2.423-2.283-4.405-4.705-4.405H7.286c-2.423 0-4.105 1.982-4.105 4.405v30.833c0 2.422 1.682 4.405 4.104 4.405h18.72a7.708 7.708 0 0 1-7.708 7.708h23.425v2.753c0 2.725 1.93 4.955 4.655 4.955h16.518c2.725 0 5.255-2.23 5.255-4.955" fill="#FFF"/><path d="M58.08 90.062l-10.577.042c.018 0 .037.09.055.09h11.597a4.715 4.715 0 0 0-1.074-.132" fill-opacity=".08" fill="#2F4662"/><path fill="#CCE0EA" d="M25.837 120.842H37.01v3.724H25.837z"/><path d="M67.763 121.764v9.164c0 2.688-2.2 4.888-4.888 4.888H46.58a4.902 4.902 0 0 1-4.888-4.888V95.082c0-2.688 2.2-4.888 4.888-4.888h16.294c2.688 0 4.888 2.2 4.888 4.888v6.618" stroke="#2F4564" stroke-width="2"/><path d="M58.114 90.194V84.84H38.65a3.992 3.992 0 0 0-4.008 3.99v32.01h7.05V95.083c0-2.688 2.2-4.888 4.888-4.888h11.533z" fill="#E5EFF4"/><path d="M67.763 121.764v9.164c0 2.688-2.2 4.888-4.888 4.888H46.58a4.902 4.902 0 0 1-4.888-4.888V95.082c0-2.688 2.2-4.888 4.888-4.888h16.294c2.688 0 4.888 2.2 4.888 4.888V121.764z" stroke="#2F4662" stroke-width="2"/><path d="M56.357 131.743a1.63 1.63 0 1 0-3.26.001 1.63 1.63 0 0 0 3.26-.001" fill="#2F4662"/><path d="M41.693 128.25h26.07M51.47 93.996h6.517" stroke="#2F4662" stroke-width="1.5"/><path d="M41.693 120.609H8.02a4.358 4.358 0 0 1-4.345-4.345V85.849a4.358 4.358 0 0 1 4.345-4.345h46.708a4.358 4.358 0 0 1 4.345 4.345v4.345" stroke="#2F4662" stroke-width="2"/><path d="M4.568 112.5H40.76M18.882 128.213c4.2 0 7.604-3.405 7.604-7.604M36.262 120.609c0 4.2 3.404 7.604 7.604 7.604" stroke="#2F4662" stroke-width="1.5"/><path d="M18.092 128.25h27.156" stroke="#2F4662" stroke-width="1.5" stroke-linecap="round"/><path d="M54.998 102.52a8.69 8.69 0 1 0 0 17.38 8.69 8.69 0 0 0 0-17.38z" stroke="#19AFFA" stroke-width="1.5" stroke-linecap="round" stroke-linejoin="round"/><path stroke="#19AFFA" stroke-width="1.5" stroke-linecap="round" stroke-linejoin="round" d="M51.804 111.08l2.216 2.216 4.172-4.172"/></g></g></svg>