<svg width="72" height="72" viewBox="0 0 72 72" xmlns="http://www.w3.org/2000/svg"><title>spaceship</title><g fill="none" fill-rule="evenodd"><path d="M66.711 4.153C62.945.388 50.876 6.124 37.884 17.28l-.398-.398-17.27-2.834-7.996 7.996 13.422 13.422c-.78 1.937-1.27 3.689-1.855 5.624l5.5 5.5c1.9-.55 3.678-1.063 5.626-1.853l13.041 13.041 7.995-7.995-2.437-16.716C64.715 20.04 70.485 7.927 66.71 4.153" fill="#FFF"/><path d="M38.523 47.817S49.449 38.4 57.58 28.865c8.133-9.534 12.021-18.57 10.352-22.424-1.667-3.856-.866-1.415-.866-1.415s-6.872 9.848-20.117 22.408C33.705 39.993 32.324 41.75 32.324 41.75l6.199 6.067zM37.89 17.464s-6.133 6.148-8.485 8.576c-2.351 2.429-6.602 6.39-6.602 6.39l-4.068-3.982 11.33-12.242 7.825 1.258z" fill="#E5EFF4"/><path fill="#CCE0EA" d="M39.627 48.897l14.221-15.116 1.136 6.989-11.998 11.416z"/><g><path d="M39.552 47.303a133.267 133.267 0 0 0 7.473-6.79C62.572 25.295 71.545 9.406 67.067 5.024 62.59.643 46.36 9.425 30.812 24.643a133.016 133.016 0 0 0-6.938 7.315" stroke="#2F4564" stroke-width="2" stroke-linejoin="round"/><path stroke="#2F4564" stroke-width="2" stroke-linejoin="round" d="M37.89 17.464l-17.241-2.77-7.984 7.813 35.677 34.921 7.982-7.814-2.461-16.516"/><path d="M58.736 16.707a2.457 2.457 0 0 0 0-3.526 2.585 2.585 0 0 0-3.603 0 2.455 2.455 0 0 0 0 3.526 2.587 2.587 0 0 0 3.603 0" fill="#2F4564"/><path d="M8.397 51.1c2.825.336 5.773-.558 7.94-2.68l3.858-3.775M2.78 48.42a9.58 9.58 0 0 0 3.172 2.062M23.293 53.706l3.105-3.04M25.482 68.934a7.257 7.257 0 0 1-5.484-2.05 6.932 6.932 0 0 1 0-9.953l1.043-1.02" stroke="#19AFFA" stroke-width="1.5"/><path d="M26.299 35.045c-.932 2.134-1.442 3.99-2.085 6.075l5.49 5.374c2.092-.59 4.023-1.123 6.212-2.042" stroke="#2F4564" stroke-width="1.5"/><path d="M23.107 47.817L12.03 58.661" stroke="#19AFFA" stroke-width="1.5"/></g></g></svg>