<svg width="72" height="72" viewBox="0 0 72 72" xmlns="http://www.w3.org/2000/svg"><title>two-hands-forming-a-heart</title><g fill="none" fill-rule="evenodd"><path d="M9.102 38.429c-6.803-6.803-6.803-17.83 0-24.632 6.802-6.802 17.829-6.802 24.631 0l2.068 2.066 2.621-2.621c6.868-6.868 18.043-6.801 24.827.198 6.694 6.905 6.162 18.076-.638 24.876l-4.294 4.294-18.21 18.21a6.072 6.072 0 0 1-8.583.008 41960.73 41960.73 0 0 1-22.422-22.4" fill="#FFF"/><path d="M62.671 13.398c-3.886-4.158-9.238-5.894-14.363-5.244.76.58 1.494 1.214 2.173 1.94 5.803 6.208 6.066 15.798 1.452 22.723L41.49 22.232 38.43 27.6l10.6 10.994-2.27 2.352L29.17 59.19c1.26 1.306 1.325 1.369 2.363 2.444 2.33 2.41 6.098 2.405 8.425-.009L57.83 43.09l4.216-4.37c6.674-6.923 7.195-18.292.625-25.321" fill="#E5EFF4"/><path d="M42.296 31.61L38.43 27.6l-4.699 3.685-6.469.325-4.094-1.601 6.001 5.711s4.498 3.964 8.552 0c4.055-3.963 4.575-4.11 4.575-4.11" fill="#CCE0EA"/><g><path d="M55.598 45.405L37.93 27.083" stroke="#19AFFA" stroke-width="1.5"/><path d="M35.73 15.866L33.7 13.76c-6.675-6.922-17.5-6.922-24.175 0-6.676 6.924-6.676 18.15 0 25.073" stroke="#2F4564" stroke-width="2"/><path d="M38.304 13.196L23.736 28.303l2.17 2.25a5.983 5.983 0 0 0 8.678 0l9.144-9.481" stroke="#2F4564" stroke-width="2"/><path d="M41.882 59.054l-4.161-4.316M45.88 54.69l-4.057-4.207M50.356 50.047L46.3 45.84" stroke="#2F4564" stroke-width="1.5" stroke-linecap="round"/><path d="M38.304 13.196c6.74-6.99 17.709-6.922 24.367.202 6.57 7.028 6.049 18.399-.626 25.32L57.83 43.09 39.958 61.625c-2.327 2.413-6.096 2.419-8.426.008-7.415-7.671-22.007-22.8-22.007-22.8" stroke="#2F4564" stroke-width="2"/></g></g></svg>